<?xml version="1.0" standalone="no"?>
<!DOCTYPE svg PUBLIC "-//W3C//DTD SVG 20010904//EN"
 "http://www.w3.org/TR/2001/REC-SVG-20010904/DTD/svg10.dtd">
<svg version="1.0" xmlns="http://www.w3.org/2000/svg"
 width="300.000000pt" height="300.000000pt" viewBox="0 0 300.000000 300.000000"
 preserveAspectRatio="xMidYMid meet">
<metadata>
Created by potrace 1.11, written by Peter Selinger 2001-2013
</metadata>
<g transform="translate(0.000000,300.000000) scale(0.100000,-0.100000)"
fill="#000000" stroke="none">
<path d="M1307 2473 c-3 -5 -8 -37 -12 -73 -4 -36 -9 -74 -11 -85 -3 -11 -5
-50 -6 -87 -1 -76 -2 -77 -88 -93 -198 -36 -370 -145 -434 -276 -35 -73 -38
-88 -42 -204 -3 -120 10 -166 92 -328 200 -395 436 -626 642 -631 19 0 27 -13
23 -38 0 -5 3 -8 9 -8 6 0 6 -9 1 -22 -4 -13 -6 -28 -4 -35 2 -6 -10 -14 -29
-18 -52 -10 -142 -38 -148 -46 -3 -3 -14 -9 -25 -13 -26 -8 -92 -72 -110 -106
-19 -37 -23 -78 -13 -123 8 -37 7 -39 -46 -88 -53 -48 -94 -117 -103 -171 l-4
-28 93 0 93 1 20 31 c11 17 29 37 41 44 18 13 22 10 49 -31 l28 -45 294 0
c242 0 297 3 309 14 8 8 14 17 14 20 0 5 46 75 55 84 4 4 53 -26 71 -43 6 -6
19 -25 28 -43 l17 -32 94 0 c84 0 94 2 88 17 -4 11 -3 14 6 9 9 -6 10 -4 3 10
-6 11 -24 49 -41 85 -29 62 -105 149 -131 149 -26 0 -37 27 -35 85 2 65 -18
110 -65 152 -54 48 -154 81 -263 86 -31 2 -62 8 -67 13 -5 5 -12 38 -15 73 -3
35 -7 67 -10 71 -3 5 18 25 47 45 28 21 58 43 65 49 35 29 138 135 162 166 14
19 28 37 31 40 11 10 78 117 114 182 38 68 92 212 101 271 3 18 8 45 11 60 7
35 7 144 0 177 -3 14 -9 39 -12 55 -9 42 -65 155 -77 155 -6 0 -8 3 -4 6 3 3
-18 27 -48 53 -84 74 -184 117 -340 146 -16 3 -84 8 -150 11 -66 3 -125 7
-131 9 -6 2 -25 47 -43 100 -34 102 -76 205 -85 205 -3 0 -7 -3 -9 -7z"/>
</g>
</svg>
